<svg width="305" height="50">
 <g font-family="Arial" font-weight="bold" font-size="66.5">
  <text fill="#0000EE" x="0" y="0"  transform="matrix(0.59,0,0,0.001,0,49)">C</text>
  <text fill="#DD0000" x="0" y="0"  transform="matrix(0.65,0,0,0.107,1,48.95)">T</text>
  <text fill="#00BB00" x="0" y="0"  transform="matrix(0.53,0,0,0.301,2,43.6)">A</text>
  <text fill="#F9A500" x="0" y="0"  transform="matrix(0.55,0,0,0.591,0,28.55)">G</text>
  
  <text fill="#00BB00" x="0" y="0"  transform="matrix(0.53,0,0,0.037,27,49)">A</text>
  <text fill="#0000EE" x="0" y="0"  transform="matrix(0.59,0,0,0.079,25,47.15)">C</text>
  <text fill="#DD0000" x="0" y="0"  transform="matrix(0.65,0,0,0.088,26,43.2)">T</text>
  <text fill="#F9A500" x="0" y="0"  transform="matrix(0.55,0,0,0.796,25,38.8)">G</text>
  
  <text fill="#00BB00" x="0" y="0"  transform="matrix(0.53,0,0,0.021,52,49)">A</text>
  <text fill="#0000EE" x="0" y="0"  transform="matrix(0.59,0,0,0.026,50,47.95)">C</text>
  <text fill="#F9A500" x="0" y="0"  transform="matrix(0.55,0,0,0.038,50,46.65)">G</text>
  <text fill="#DD0000" x="0" y="0"  transform="matrix(0.65,0,0,0.915,51,44.75)">T</text>
  
  <text fill="#0000EE" x="0" y="0"  transform="matrix(0.59,0,0,0.001,75,49)">C</text>
  <text fill="#F9A500" x="0" y="0"  transform="matrix(0.55,0,0,0.015,75,48.95)">G</text>
  <text fill="#00BB00" x="0" y="0"  transform="matrix(0.53,0,0,0.045,77,48.2)">A</text>
  <text fill="#DD0000" x="0" y="0"  transform="matrix(0.65,0,0,0.939,76,45.95)">T</text>
  
  <text fill="#F9A500" x="0" y="0"  transform="matrix(0.55,0,0,0.009,100,49)">G</text>
  <text fill="#0000EE" x="0" y="0"  transform="matrix(0.59,0,0,0.033,100,48.55)">C</text>
  <text fill="#DD0000" x="0" y="0"  transform="matrix(0.65,0,0,0.068,101,46.9)">T</text>
  <text fill="#00BB00" x="0" y="0"  transform="matrix(0.53,0,0,0.890,102,43.5)">A</text>
  
  <text fill="#0000EE" x="0" y="0"  transform="matrix(0.59,0,0,0.001,125,49)">C</text>
  <text fill="#F9A500" x="0" y="0"  transform="matrix(0.55,0,0,0.004,125,48.95)">G</text>
  <text fill="#DD0000" x="0" y="0"  transform="matrix(0.65,0,0,0.057,126,48.75)">T</text>
  <text fill="#00BB00" x="0" y="0"  transform="matrix(0.53,0,0,0.938,127,45.9)">A</text>
  
  <text fill="#F9A500" x="0" y="0"  transform="matrix(0.55,0,0,0.001,150,49)">G</text>
  <text fill="#0000EE" x="0" y="0"  transform="matrix(0.59,0,0,0.008,150,48.95)">C</text>
  <text fill="#00BB00" x="0" y="0"  transform="matrix(0.53,0,0,0.108,152,48.55)">A</text>
  <text fill="#DD0000" x="0" y="0"  transform="matrix(0.65,0,0,0.883,151,43.15)">T</text>
  
  <text fill="#DD0000" x="0" y="0"  transform="matrix(0.65,0,0,0.084,176,49)">T</text>
  <text fill="#00BB00" x="0" y="0"  transform="matrix(0.53,0,0,0.143,177,44.8)">A</text>
  <text fill="#F9A500" x="0" y="0"  transform="matrix(0.55,0,0,0.277,175,37.65)">G</text>
  <text fill="#0000EE" x="0" y="0"  transform="matrix(0.59,0,0,0.496,175,23.8)">C</text>
  
  <text fill="#F9A500" x="0" y="0"  transform="matrix(0.55,0,0,0.001,200,49)">G</text>
  <text fill="#0000EE" x="0" y="0"  transform="matrix(0.59,0,0,0.017,200,48.95)">C</text>
  <text fill="#DD0000" x="0" y="0"  transform="matrix(0.65,0,0,0.255,201,48.1)">T</text>
  <text fill="#00BB00" x="0" y="0"  transform="matrix(0.53,0,0,0.727,202,35.35)">A</text>
  
  <text fill="#0000EE" x="0" y="0"  transform="matrix(0.59,0,0,0.001,225,49)">C</text>
  <text fill="#F9A500" x="0" y="0"  transform="matrix(0.55,0,0,0.007,225,48.95)">G</text>
  <text fill="#00BB00" x="0" y="0"  transform="matrix(0.53,0,0,0.015,227,48.6)">A</text>
  <text fill="#DD0000" x="0" y="0"  transform="matrix(0.65,0,0,0.977,226,47.85)">T</text>
  
  <text fill="#F9A500" x="0" y="0"  transform="matrix(0.55,0,0,0.001,250,49)">G</text>
  <text fill="#00BB00" x="0" y="0"  transform="matrix(0.53,0,0,0.034,252,48.95)">A</text>
  <text fill="#0000EE" x="0" y="0"  transform="matrix(0.59,0,0,0.035,250,47.25)">C</text>
  <text fill="#DD0000" x="0" y="0"  transform="matrix(0.65,0,0,0.930,251,45.5)">T</text>
  
  <text fill="#F9A500" x="0" y="0"  transform="matrix(0.55,0,0,0.058,275,49)">G</text>
  <text fill="#DD0000" x="0" y="0"  transform="matrix(0.65,0,0,0.064,276,46.1)">T</text>
  <text fill="#0000EE" x="0" y="0"  transform="matrix(0.59,0,0,0.077,275,42.9)">C</text>
  <text fill="#00BB00" x="0" y="0"  transform="matrix(0.53,0,0,0.801,277,39.05)">A</text>
  
 </g>
</svg>
