<svg width="305" height="50">
 <g font-family="Arial" font-weight="bold" font-size="66.5">
  <text fill="#0000EE" x="0" y="0"  transform="matrix(0.59,0,0,0.129,0,49)">C</text>
  <text fill="#F9A500" x="0" y="0"  transform="matrix(0.55,0,0,0.229,0,42.55)">G</text>
  <text fill="#DD0000" x="0" y="0"  transform="matrix(0.65,0,0,0.306,1,31.1)">T</text>
  <text fill="#00BB00" x="0" y="0"  transform="matrix(0.53,0,0,0.336,2,15.8)">A</text>
  
  <text fill="#DD0000" x="0" y="0"  transform="matrix(0.65,0,0,0.144,26,49)">T</text>
  <text fill="#F9A500" x="0" y="0"  transform="matrix(0.55,0,0,0.199,25,41.8)">G</text>
  <text fill="#0000EE" x="0" y="0"  transform="matrix(0.59,0,0,0.270,25,31.85)">C</text>
  <text fill="#00BB00" x="0" y="0"  transform="matrix(0.53,0,0,0.386,27,18.35)">A</text>
  
  <text fill="#0000EE" x="0" y="0"  transform="matrix(0.59,0,0,0.001,50,49)">C</text>
  <text fill="#F9A500" x="0" y="0"  transform="matrix(0.55,0,0,0.001,50,48.95)">G</text>
  <text fill="#00BB00" x="0" y="0"  transform="matrix(0.53,0,0,0.012,52,48.9)">A</text>
  <text fill="#DD0000" x="0" y="0"  transform="matrix(0.65,0,0,0.986,51,48.3)">T</text>
  
  <text fill="#00BB00" x="0" y="0"  transform="matrix(0.53,0,0,0.001,77,49)">A</text>
  <text fill="#0000EE" x="0" y="0"  transform="matrix(0.59,0,0,0.006,75,48.95)">C</text>
  <text fill="#DD0000" x="0" y="0"  transform="matrix(0.65,0,0,0.185,76,48.65)">T</text>
  <text fill="#F9A500" x="0" y="0"  transform="matrix(0.55,0,0,0.808,75,39.4)">G</text>
  
  <text fill="#0000EE" x="0" y="0"  transform="matrix(0.59,0,0,0.001,100,49)">C</text>
  <text fill="#F9A500" x="0" y="0"  transform="matrix(0.55,0,0,0.001,100,48.95)">G</text>
  <text fill="#DD0000" x="0" y="0"  transform="matrix(0.65,0,0,0.030,101,48.9)">T</text>
  <text fill="#00BB00" x="0" y="0"  transform="matrix(0.53,0,0,0.968,102,47.4)">A</text>
  
  <text fill="#00BB00" x="0" y="0"  transform="matrix(0.53,0,0,0.102,127,49)">A</text>
  <text fill="#DD0000" x="0" y="0"  transform="matrix(0.65,0,0,0.125,126,43.9)">T</text>
  <text fill="#0000EE" x="0" y="0"  transform="matrix(0.59,0,0,0.378,125,37.65)">C</text>
  <text fill="#F9A500" x="0" y="0"  transform="matrix(0.55,0,0,0.395,125,18.75)">G</text>
  
  <text fill="#0000EE" x="0" y="0"  transform="matrix(0.59,0,0,0.001,150,49)">C</text>
  <text fill="#F9A500" x="0" y="0"  transform="matrix(0.55,0,0,0.001,150,48.95)">G</text>
  <text fill="#00BB00" x="0" y="0"  transform="matrix(0.53,0,0,0.033,152,48.9)">A</text>
  <text fill="#DD0000" x="0" y="0"  transform="matrix(0.65,0,0,0.965,151,47.25)">T</text>
  
  <text fill="#DD0000" x="0" y="0"  transform="matrix(0.65,0,0,0.001,176,49)">T</text>
  <text fill="#F9A500" x="0" y="0"  transform="matrix(0.55,0,0,0.107,175,48.95)">G</text>
  <text fill="#00BB00" x="0" y="0"  transform="matrix(0.53,0,0,0.192,177,43.6)">A</text>
  <text fill="#0000EE" x="0" y="0"  transform="matrix(0.59,0,0,0.700,175,34)">C</text>
  
  <text fill="#0000EE" x="0" y="0"  transform="matrix(0.59,0,0,0.001,200,49)">C</text>
  <text fill="#F9A500" x="0" y="0"  transform="matrix(0.55,0,0,0.001,200,48.95)">G</text>
  <text fill="#DD0000" x="0" y="0"  transform="matrix(0.65,0,0,0.001,201,48.9)">T</text>
  <text fill="#00BB00" x="0" y="0"  transform="matrix(0.53,0,0,0.997,202,48.85)">A</text>
  
  <text fill="#00BB00" x="0" y="0"  transform="matrix(0.53,0,0,0.144,227,49)">A</text>
  <text fill="#0000EE" x="0" y="0"  transform="matrix(0.59,0,0,0.209,225,41.8)">C</text>
  <text fill="#F9A500" x="0" y="0"  transform="matrix(0.55,0,0,0.244,225,31.35)">G</text>
  <text fill="#DD0000" x="0" y="0"  transform="matrix(0.65,0,0,0.403,226,19.15)">T</text>
  
  <text fill="#F9A500" x="0" y="0"  transform="matrix(0.55,0,0,0.117,250,49)">G</text>
  <text fill="#0000EE" x="0" y="0"  transform="matrix(0.59,0,0,0.233,250,43.15)">C</text>
  <text fill="#00BB00" x="0" y="0"  transform="matrix(0.53,0,0,0.303,252,31.5)">A</text>
  <text fill="#DD0000" x="0" y="0"  transform="matrix(0.65,0,0,0.347,251,16.35)">T</text>
  
  <text fill="#F9A500" x="0" y="0"  transform="matrix(0.55,0,0,0.153,275,49)">G</text>
  <text fill="#0000EE" x="0" y="0"  transform="matrix(0.59,0,0,0.223,275,41.35)">C</text>
  <text fill="#00BB00" x="0" y="0"  transform="matrix(0.53,0,0,0.304,277,30.2)">A</text>
  <text fill="#DD0000" x="0" y="0"  transform="matrix(0.65,0,0,0.320,276,15)">T</text>
  
 </g>
</svg>
