<svg width="305" height="50">
 <g font-family="Arial" font-weight="bold" font-size="66.5">
  <text fill="#F9A500" x="0" y="0"  transform="matrix(0.55,0,0,0.054,0,49)">G</text>
  <text fill="#DD0000" x="0" y="0"  transform="matrix(0.65,0,0,0.069,1,46.3)">T</text>
  <text fill="#0000EE" x="0" y="0"  transform="matrix(0.59,0,0,0.074,0,42.85)">C</text>
  <text fill="#00BB00" x="0" y="0"  transform="matrix(0.53,0,0,0.803,2,39.15)">A</text>
  
  <text fill="#DD0000" x="0" y="0"  transform="matrix(0.65,0,0,0.044,26,49)">T</text>
  <text fill="#F9A500" x="0" y="0"  transform="matrix(0.55,0,0,0.076,25,46.8)">G</text>
  <text fill="#00BB00" x="0" y="0"  transform="matrix(0.53,0,0,0.084,27,43)">A</text>
  <text fill="#0000EE" x="0" y="0"  transform="matrix(0.59,0,0,0.796,25,38.8)">C</text>
  
  <text fill="#F9A500" x="0" y="0"  transform="matrix(0.55,0,0,0.031,50,49)">G</text>
  <text fill="#00BB00" x="0" y="0"  transform="matrix(0.53,0,0,0.051,52,47.45)">A</text>
  <text fill="#DD0000" x="0" y="0"  transform="matrix(0.65,0,0,0.095,51,44.9)">T</text>
  <text fill="#0000EE" x="0" y="0"  transform="matrix(0.59,0,0,0.823,50,40.15)">C</text>
  
  <text fill="#F9A500" x="0" y="0"  transform="matrix(0.55,0,0,0.026,75,49)">G</text>
  <text fill="#00BB00" x="0" y="0"  transform="matrix(0.53,0,0,0.062,77,47.7)">A</text>
  <text fill="#0000EE" x="0" y="0"  transform="matrix(0.59,0,0,0.075,75,44.6)">C</text>
  <text fill="#DD0000" x="0" y="0"  transform="matrix(0.65,0,0,0.837,76,40.85)">T</text>
  
  <text fill="#00BB00" x="0" y="0"  transform="matrix(0.53,0,0,0.022,102,49)">A</text>
  <text fill="#DD0000" x="0" y="0"  transform="matrix(0.65,0,0,0.064,101,47.9)">T</text>
  <text fill="#F9A500" x="0" y="0"  transform="matrix(0.55,0,0,0.066,100,44.7)">G</text>
  <text fill="#0000EE" x="0" y="0"  transform="matrix(0.59,0,0,0.848,100,41.4)">C</text>
  
  <text fill="#F9A500" x="0" y="0"  transform="matrix(0.55,0,0,0.022,125,49)">G</text>
  <text fill="#00BB00" x="0" y="0"  transform="matrix(0.53,0,0,0.060,127,47.9)">A</text>
  <text fill="#DD0000" x="0" y="0"  transform="matrix(0.65,0,0,0.096,126,44.9)">T</text>
  <text fill="#0000EE" x="0" y="0"  transform="matrix(0.59,0,0,0.822,125,40.1)">C</text>
  
  <text fill="#F9A500" x="0" y="0"  transform="matrix(0.55,0,0,0.031,150,49)">G</text>
  <text fill="#DD0000" x="0" y="0"  transform="matrix(0.65,0,0,0.049,151,47.45)">T</text>
  <text fill="#00BB00" x="0" y="0"  transform="matrix(0.53,0,0,0.064,152,45)">A</text>
  <text fill="#0000EE" x="0" y="0"  transform="matrix(0.59,0,0,0.856,150,41.8)">C</text>
  
  <text fill="#F9A500" x="0" y="0"  transform="matrix(0.55,0,0,0.033,175,49)">G</text>
  <text fill="#DD0000" x="0" y="0"  transform="matrix(0.65,0,0,0.047,176,47.35)">T</text>
  <text fill="#0000EE" x="0" y="0"  transform="matrix(0.59,0,0,0.055,175,45)">C</text>
  <text fill="#00BB00" x="0" y="0"  transform="matrix(0.53,0,0,0.865,177,42.25)">A</text>
  
  <text fill="#DD0000" x="0" y="0"  transform="matrix(0.65,0,0,0.040,201,49)">T</text>
  <text fill="#F9A500" x="0" y="0"  transform="matrix(0.55,0,0,0.066,200,47)">G</text>
  <text fill="#00BB00" x="0" y="0"  transform="matrix(0.53,0,0,0.071,202,43.7)">A</text>
  <text fill="#0000EE" x="0" y="0"  transform="matrix(0.59,0,0,0.823,200,40.15)">C</text>
  
  <text fill="#F9A500" x="0" y="0"  transform="matrix(0.55,0,0,0.029,225,49)">G</text>
  <text fill="#DD0000" x="0" y="0"  transform="matrix(0.65,0,0,0.031,226,47.55)">T</text>
  <text fill="#0000EE" x="0" y="0"  transform="matrix(0.59,0,0,0.051,225,46)">C</text>
  <text fill="#00BB00" x="0" y="0"  transform="matrix(0.53,0,0,0.889,227,43.45)">A</text>
  
  <text fill="#DD0000" x="0" y="0"  transform="matrix(0.65,0,0,0.035,251,49)">T</text>
  <text fill="#0000EE" x="0" y="0"  transform="matrix(0.59,0,0,0.040,250,47.25)">C</text>
  <text fill="#00BB00" x="0" y="0"  transform="matrix(0.53,0,0,0.109,252,45.25)">A</text>
  <text fill="#F9A500" x="0" y="0"  transform="matrix(0.55,0,0,0.816,250,39.8)">G</text>
  
  <text fill="#DD0000" x="0" y="0"  transform="matrix(0.65,0,0,0.040,276,49)">T</text>
  <text fill="#0000EE" x="0" y="0"  transform="matrix(0.59,0,0,0.060,275,47)">C</text>
  <text fill="#F9A500" x="0" y="0"  transform="matrix(0.55,0,0,0.069,275,44)">G</text>
  <text fill="#00BB00" x="0" y="0"  transform="matrix(0.53,0,0,0.831,277,40.55)">A</text>
  
 </g>
</svg>
